PathFileType	4	(X/Y/Z)	Patient4_TMGait_0pt5_02_right_30.trc.trc
DataRate	CameraRate	NumFrames	NumMarkers	Units	OrigDataRate	OrigDataStartFrame	OrigNumFrames
72.916666666667	72.916666666667	4	33	mm	72.916666666667	124	       141
Frame#	Time	Sacral			L.Shoulder			Chest			R.Shoulder			Neck			R.ASIS			L.ASIS			R.Thigh.Superior			R.Thigh.Lateral			R.Thigh.Inferior			R.Patella			L.Thigh.Superior			L.Thigh.Lateral			L.Thigh.Inferior			L.Patella			L.Shank.Superior			L.Shank.Lateral			L.Shank.Inferior			R.Shank.Superior			R.Shank.Lateral			R.Shank.Inferior			R.Heel			R.Midfoot.Superior			R.Midfoot.Lateral			R.Toe			L.Heel			L.Midfoot.Lateral			L.Midfoot.Superior			L.Toe			L.Elbow			L.Wrist			R.Elbow			R.Wrist			
		X1	Y1	Z1	X2	Y2	Z2	X3	Y3	Z3	X4	Y4	Z4	X5	Y5	Z5	X6	Y6	Z6	X7	Y7	Z7	X8	Y8	Z8	X9	Y9	Z9	X10	Y10	Z10	X11	Y11	Z11	X12	Y12	Z12	X13	Y13	Z13	X14	Y14	Z14	X15	Y15	Z15	X16	Y16	Z16	X17	Y17	Z17	X18	Y18	Z18	X19	Y19	Z19	X20	Y20	Z20	X21	Y21	Z21	X22	Y22	Z22	X23	Y23	Z23	X24	Y24	Z24	X25	Y25	Z25	X26	Y26	Z26	X27	Y27	Z27	X28	Y28	Z28	X29	Y29	Z29	X30	Y30	Z30	X31	Y31	Z31	X32	Y32	Z32	X33	Y33	Z33	

124	40.796857142857	677.426053486820	998.497161574125	429.910653515095	863.427724141928	1411.873893260308	236.989876793875	949.508514936216	1357.585087688008	412.956186087837	848.622626437709	1444.884045388470	571.815960175564	847.914982026331	1485.677611931532	381.855666452403	893.170932663671	934.607257619919	565.213810141204	900.933093442574	955.447896002874	289.854556423092	963.134516680551	754.146618699574	542.450856548235	903.170801197649	632.860571761028	605.228924158352	995.838233520653	593.138306274635	532.141323654870	1021.709835846668	508.886025965499	544.066547787136	900.516641069541	729.674970966362	317.526518704879	783.290034681088	636.112264727559	254.224607696692	840.315242952322	542.736312106290	320.206067047851	825.487932784526	475.070998181197	329.626764998771	791.520988429814	411.226303455054	322.458374676347	690.747300207103	304.601161414683	273.145148821898	732.811691065137	191.304215806451	348.756664387468	1003.947160089738	419.599528486504	551.767865827814	944.470970262190	307.761666698935	611.125883633980	1010.471032490495	219.848892712182	560.297803368715	908.115341913519	43.571723487746	529.026976574503	1073.423849245377	105.526075351829	570.317329825095	990.045849570914	38.104848132781	605.579320554946	1195.329213320364	60.208239714850	601.216283811210	595.774962736295	39.084012255844	395.991945403174	670.205149114134	34.392274389815	315.906708597761	753.373331846110	95.707906327055	341.907607873954	881.654824715617	44.258645264295	316.085692264731	915.479742535464	1063.931101704299	115.298266165301	1162.121156066143	981.032972669082	112.059340732686	690.858495296385	1156.608637425159	710.370105740097	657.639787215118	903.309700124347	764.092315957861	
125	40.810571428571	679.010859360526	997.720516592226	432.388448392448	863.831809763302	1411.336612002007	239.674527718469	950.403784729829	1357.271194065093	415.534839065638	849.190950582017	1444.073237778581	574.561013858481	848.356216593841	1485.070343364958	384.621408994465	895.446127738843	933.445090360928	566.832958587477	902.447725289568	954.909736825702	291.740305083193	965.465889106256	752.357054333798	542.304758299482	904.646641038984	631.576265381024	604.609607229019	996.285109669679	591.620327326395	530.474008335175	1021.223635889920	506.543107130311	541.844532362844	901.321045936744	728.709672152464	318.458971102920	783.215132118221	635.746894607289	255.747295797367	840.026761524859	541.784698142197	321.259690673487	825.032423195649	473.707653399318	330.623839455067	789.713392256316	410.312114321682	323.454642988393	687.234851383411	305.299549719813	274.036261310427	727.734718337960	191.061270095943	348.988717986267	1002.292015283499	416.779482145872	550.046063621348	941.481865474498	305.837230370679	609.872944287404	1004.983403160430	216.776662669329	557.992501638466	898.624902822996	42.698002112107	527.826987442352	1065.066380324117	102.687139531552	567.599561559469	980.773715574316	36.972897923106	604.116068667209	1186.740879439705	55.568916644007	598.249546918173	588.957568712541	39.751918813809	395.805369274340	663.456373406349	34.615078769972	315.910061973331	746.856550943172	95.719508515535	341.844019840313	874.980381063392	43.661755040183	316.080171197676	913.297160407761	1062.573675101038	118.270565862901	1158.800755191967	975.951868968199	114.066314184495	692.373514026045	1154.787419370417	712.095491818037	661.010941297898	900.731289557386	764.632627591947	
126	40.824285714286	680.541382233186	997.271102762035	434.938050389435	864.364201852785	1411.149299816528	242.476768922127	951.451206651912	1357.159400632420	418.167553903961	850.030704378538	1443.426289524491	577.441737002684	849.018550500910	1484.749453613617	387.550414449835	897.664828002597	932.668881859560	568.514888352815	903.950748236358	954.561522279441	293.678002720001	967.664355009326	751.011117867681	542.127102563113	906.330103739232	630.835037311919	604.339849305378	996.772357728569	590.556537892471	528.988516667511	1020.796985131904	504.633623229673	540.060444262652	902.217437011261	727.983216814176	319.568012754002	783.387824593620	635.486077527743	257.437252473520	840.108893043973	540.996113589659	322.471769031331	824.964663523630	472.466303552103	331.703997901006	788.256961747947	409.467894006278	324.535046797389	683.970204486327	306.203923097688	275.037418393028	722.827397007260	190.956629070509	349.225919412577	1000.780971549393	414.525618181808	548.799246424715	938.885368342281	304.458768529251	609.244447151444	999.891474662675	214.341461723709	556.276317297193	889.869602136749	42.121848690265	527.199095079840	1057.215869998467	100.598342299142	565.592660180139	972.211239070033	36.292410549132	603.257598651275	1178.730243116512	52.094163223066	596.080573560113	582.180769414040	40.726146413615	395.582529190995	656.757390509304	34.968071520441	315.903610913928	740.468961515374	95.794162267655	341.717589428992	868.360704862187	42.982116786212	316.059913708522	910.910511083004	1061.447449622933	121.569616288393	1154.805074846118	969.810061632157	116.195767741207	694.938576048424	1152.567728117261	713.925536526197	666.036697944225	897.584790195739	764.891784932986	
127	40.838000000000	682.009642138029	997.172694582764	437.545226117187	865.056504964020	1411.339955113176	245.361840037491	952.639010043035	1357.265836005378	420.828922715221	851.136611801790	1442.988982263495	580.415298042272	849.899948013061	1484.736438164586	390.600282871948	899.778667420288	932.316151702444	570.298609737313	905.414940429484	954.433315852991	295.668733898711	969.677156705467	750.167601051065	542.030425976936	908.172996695384	630.619547229553	604.481932809087	997.300697477048	589.938861574452	527.837124097380	1020.403010782736	503.158407502732	538.854513815065	903.163059151076	727.536748687023	320.885648229063	783.788575349526	635.358577344267	259.278536520429	840.554378840460	540.407921366199	323.821203942377	825.269711049318	471.373136707004	332.817817534123	787.148201413680	408.725667659195	325.653690202117	680.950314881574	307.351271849783	276.126336025625	718.099383954384	191.030948181897	349.442839672538	999.378869879115	412.832923943579	548.068654260995	936.607800014275	303.603417645853	609.202680851902	995.167730305185	212.540793858880	555.144926019745	881.878304731134	41.815862920521	527.026269768566	1049.905047658840	99.201998006330	564.283433474055	964.370745072630	35.984743866727	602.904033928158	1171.303294711547	49.717957343409	594.694779188127	575.463761662498	42.080601027892	395.326667736342	650.115101867651	35.487599219584	315.883269227920	734.236594614751	95.946266296545	341.509861513406	861.791273432071	42.232788205300	316.023768867391	908.335184075131	1060.601760617909	125.180701179768	1150.050796742531	962.673847170611	118.457686509057	698.504610623216	1150.079808155508	715.895008870250	672.761428722980	894.030991048457	764.904487656397	
